<svg xmlns="http://www.w3.org/2000/svg" viewBox="0 0 500 200" fill="none">
  <!-- Atom-like symbol with four orbital lines -->
  <path d="M80 100 C80 10 220 10 220 100 C220 190 80 190 80 100 Z" fill="none" stroke="#2A8A8E" stroke-width="6" />
  <path d="M90 80 C90 30 210 120 210 80 C210 40 90 130 90 80 Z" fill="none" stroke="#E47846" stroke-width="6" />
  <path d="M140 45 C200 45 200 155 140 155 C80 155 80 45 140 45 Z" fill="none" stroke="#D83E54" stroke-width="6" />
  <path d="M100 60 C130 30 150 170 180 140 C210 110 130 50 100 60 Z" fill="none" stroke="#C6D62F" stroke-width="6" />
  
  <!-- GANDALL text -->
  <path d="M250 75 H260 Q274 75 280 82 Q286 89 286 100 Q286 111 280 118 Q274 125 260 125 H250 V75 Z M260 115 Q268 115 272 110 Q276 105 276 100 Q276 95 272 90 Q268 85 260 85 V115 Z" fill="black"/>
  <path d="M300 75 L330 75 L330 85 L310 85 L310 95 L325 95 L325 105 L310 105 L310 115 L330 115 L330 125 L300 125 V75 Z" fill="black"/>
  <path d="M345 75 L355 75 L355 105 Q355 110 357 112 Q359 115 365 115 Q371 115 373 112 Q375 110 375 105 V75 L385 75 V105 Q385 115 380 120 Q375 125 365 125 Q355 125 350 120 Q345 115 345 105 V75 Z" fill="black"/>
  <path d="M400 75 L410 75 L410 115 L430 115 L430 125 L400 125 V75 Z" fill="black"/>
  <path d="M445 75 L455 75 L455 115 L475 115 L475 125 L445 125 V75 Z" fill="black"/>
  <path d="M490 75 L500 75 L500 125 L490 125 V75 Z" fill="black"/>
  
  <!-- GROUP text -->
  <path d="M265 140 H275 Q289 140 295 145 Q300 150 300 160 Q300 170 295 175 Q289 180 275 180 H265 V140 Z M275 170 Q283 170 287 167 Q291 164 291 160 Q291 156 287 153 Q283 150 275 150 V170 Z" fill="black"/>
  <path d="M315 140 L345 140 L345 150 L325 150 L325 155 L340 155 L340 165 L325 165 L325 170 L345 170 L345 180 L315 180 V140 Z" fill="black"/>
  <path d="M360 140 L390 140 L390 150 L380 150 L380 180 L370 180 L370 150 L360 150 V140 Z" fill="black"/>
  <path d="M405 140 L435 140 L435 150 L415 150 L415 155 L430 155 L430 165 L415 165 L415 170 L435 170 L435 180 L405 180 V140 Z" fill="black"/>
</svg>